<mxfile host="app.diagrams.net" modified="2023-06-16T11:41:26.898Z" agent="Mozilla/5.0 (Macintosh; Intel Mac OS X 10_15_7) AppleWebKit/537.36 (KHTML, like Gecko) Chrome/114.0.0.0 Safari/537.36" version="21.4.0" etag="zAvSchH7hsBPh44_E5AF" type="github">
  <diagram name="ページ1" id="wpgIV0toxubkk-c5ZMFS">
    <mxGraphModel>
      <root>
        <mxCell id="0" />
        <mxCell id="1" parent="0" />
      </root>
    </mxGraphModel>
  </diagram>
</mxfile>
